<svg width="150" height="150" viewBox="0 0 150 150" fill="none" xmlns="http://www.w3.org/2000/svg">
<path d="M150 75C150 116.421 116.421 150 75 150C33.5786 150 0 116.421 0 75C0 33.5786 33.5786 0 75 0C116.421 0 150 33.5786 150 75Z" fill="#171B27"/>
<path d="M90 75C90 83.2842 83.2842 90 75 90C66.7157 90 60 83.2842 60 75C60 66.7157 66.7157 60 75 60C83.2842 60 90 66.7157 90 75Z" fill="#FF792E"/>
<path d="M66 14C66 9.02944 70.0294 5 75 5C79.9705 5 84 9.02944 84 14V46C84 50.9705 79.9705 55 75 55C70.0294 55 66 50.9705 66 46V14Z" fill="#EFEFEF"/>
<path d="M136 66C140.971 66 145 70.0294 145 75C145 79.9705 140.971 84 136 84H104C99.0294 84 95 79.9705 95 75C95 70.0294 99.0294 66 104 66H136Z" fill="#EFEFEF"/>
<path d="M27.2426 35.7279C24.8995 33.3848 24.8995 29.5858 27.2426 27.2426C29.5858 24.8995 33.3848 24.8995 35.7279 27.2426L55.5269 47.0416C57.87 49.3848 57.87 53.1838 55.5269 55.5269C53.1837 57.87 49.3848 57.87 47.0416 55.5269L27.2426 35.7279Z" fill="#FFD12F"/>
<path d="M94.2426 102.728C91.8995 100.385 91.8995 96.5858 94.2426 94.2426C96.5858 91.8995 100.385 91.8995 102.728 94.2426L122.527 114.042C124.87 116.385 124.87 120.184 122.527 122.527C120.184 124.87 116.385 124.87 114.042 122.527L94.2426 102.728Z" fill="#FFD12F"/>
<path d="M114.272 27.2426C116.615 24.8995 120.414 24.8995 122.757 27.2426C125.1 29.5858 125.1 33.3848 122.757 35.7279L102.958 55.5269C100.615 57.87 96.8162 57.87 94.4731 55.5269C92.1299 53.1837 92.1299 49.3848 94.4731 47.0416L114.272 27.2426Z" fill="#FFD12F"/>
<path d="M47.2721 94.2426C49.6152 91.8995 53.4142 91.8995 55.7573 94.2426C58.1005 96.5858 58.1005 100.385 55.7573 102.728L35.9583 122.527C33.6152 124.87 29.8162 124.87 27.4731 122.527C25.1299 120.184 25.1299 116.385 27.4731 114.042L47.2721 94.2426Z" fill="#FFD12F"/>
<path d="M46 66C50.9705 66 55 70.0294 55 75C55 79.9705 50.9705 84 46 84H14C9.02944 84 5 79.9705 5 75C5 70.0294 9.02944 66 14 66H46Z" fill="#EFEFEF"/>
<path d="M66 104C66 99.0294 70.0294 95 75 95C79.9705 95 84 99.0294 84 104V136C84 140.971 79.9705 145 75 145C70.0294 145 66 140.971 66 136V104Z" fill="#EFEFEF"/>
</svg>
