<!--?xml version="1.0" standalone="no"?-->
              <svg id="sw-js-blob-svg" viewBox="0 0 100 100" xmlns="http://www.w3.org/2000/svg" version="1.1">
                    <defs> 
                        <linearGradient id="sw-gradient" x1="0" x2="1" y1="1" y2="0">
                            <stop id="stop1" stop-color="rgba(248, 117, 55, 1)" offset="0%"></stop>
                            <stop id="stop2" stop-color="rgba(255, 195, 0, 1)" offset="100%"></stop>
                        </linearGradient>
                    </defs>
                <path fill="url(#sw-gradient)" d="M25,-34.7C31.4,-29.7,35,-21.1,38.2,-12.2C41.3,-3.3,43.9,5.9,42.1,14.3C40.3,22.8,33.9,30.4,26.2,35.6C18.4,40.7,9.2,43.4,1.3,41.6C-6.6,39.8,-13.1,33.5,-20.8,28.3C-28.5,23.1,-37.3,19,-40.1,12.5C-42.9,6,-39.8,-3,-36,-10.8C-32.2,-18.6,-27.8,-25.4,-21.7,-30.4C-15.5,-35.5,-7.8,-38.9,0.8,-40C9.3,-41,18.6,-39.7,25,-34.7Z" width="100%" height="100%" transform="translate(50 50)" stroke-width="0" style="transition: all 0.3s ease 0s;" stroke="url(#sw-gradient)"></path>
              </svg>