<svg width="355" height="231" viewBox="0 0 355 231" fill="none" xmlns="http://www.w3.org/2000/svg">
<path d="M4 123C4 123.66 4.00671 124.319 4.02007 124.976C4.00671 125.649 4 126.324 4 127C4 182.228 48.7715 227 104 227H118H233.5H251C306.228 227 351 182.228 351 127C351 125.099 350.947 123.21 350.842 121.335C350.947 119.403 351 117.458 351 115.5C351 53.7183 298.186 4 233.5 4C206.653 4 181.852 12.564 162.022 27H161.896C148.361 21.8428 133.525 19 118 19C55.4068 19 4 65.2122 4 123Z" fill="#EFEFEF" stroke="black" stroke-width="8"/>
</svg>
