<svg width="339" height="215" viewBox="0 0 339 215" fill="none" xmlns="http://www.w3.org/2000/svg">
<path d="M0 119C0 65.9807 42.9807 23 96 23H243C296.019 23 339 65.9807 339 119C339 172.019 296.019 215 243 215H96C42.9807 215 0 172.019 0 119Z" fill="#EFEFEF"/>
<path d="M339 107.5C339 166.871 288.184 215 225.5 215C162.816 215 112 166.871 112 107.5C112 48.1294 162.816 0 225.5 0C288.184 0 339 48.1294 339 107.5Z" fill="#EFEFEF"/>
<path d="M220 115C220 170.228 170.751 215 110 215C49.2487 215 0 170.228 0 115C0 59.7715 49.2487 15 110 15C170.751 15 220 59.7715 220 115Z" fill="#EFEFEF"/>
</svg>
