<svg width="426" height="279" viewBox="0 0 426 279" fill="none" xmlns="http://www.w3.org/2000/svg">
<path d="M0 185.28C0 133.52 43.566 91.5604 97.3074 91.5604H328.693C382.434 91.5604 426 133.52 426 185.28C426 237.04 382.434 279 328.693 279H97.3074C43.566 279 0 237.04 0 185.28Z" fill="#EFEFEF"/>
<path d="M295.061 0C351.031 0 396.404 43.7001 396.404 97.6068V181.393C396.404 235.3 351.031 279 295.061 279H281.608C225.638 279 180.265 235.3 180.265 181.393V97.6068C180.265 43.7001 225.638 0 281.608 0H295.061Z" fill="#EFEFEF"/>
<path d="M251.116 124.816C251.116 167.512 215.179 202.124 170.848 202.124C126.518 202.124 90.5811 167.512 90.5811 124.816C90.5811 82.1197 126.518 47.5077 170.848 47.5077C215.179 47.5077 251.116 82.1197 251.116 124.816Z" fill="#EFEFEF"/>
</svg>
